<svg width="851" height="315" viewBox="0 0 851 315" fill="none" xmlns="http://www.w3.org/2000/svg">
<g clip-path="url(#clip0_301_17)">
<rect width="851" height="315" fill="#2CAB39" fill-opacity="0.86"/>
<g clip-path="url(#clip1_301_17)">
<path d="M277.195 199.713C277.964 201.076 279.074 202.099 280.44 202.866L346.188 240.694C348.92 242.313 352.25 242.313 354.897 240.694L420.645 202.866C423.378 201.332 425 198.435 425 195.283V119.625C425 116.473 423.378 113.576 420.645 112.043L354.897 74.2136C352.165 72.5945 348.835 72.5945 346.188 74.2136L280.441 112.043C277.622 113.576 276 116.473 276 119.625V195.367C276 196.902 276.342 198.35 277.195 199.713Z" fill="#009639"/>
<path d="M329.452 186.337C329.457 187.446 329.241 188.545 328.818 189.57C328.395 190.596 327.773 191.528 326.987 192.312C326.201 193.096 325.267 193.717 324.239 194.139C323.212 194.561 322.11 194.776 320.999 194.772C319.887 194.776 318.786 194.561 317.758 194.139C316.731 193.717 315.797 193.096 315.011 192.312C314.225 191.527 313.603 190.596 313.18 189.57C312.757 188.545 312.541 187.446 312.546 186.337V128.487C312.546 123.971 316.559 120.307 322.109 120.307C326.122 120.307 330.819 121.926 333.636 125.419L336.197 128.487L371.548 170.66V128.657C371.544 127.548 371.759 126.449 372.182 125.423C372.605 124.398 373.228 123.466 374.014 122.682C374.8 121.898 375.733 121.277 376.761 120.854C377.789 120.432 378.89 120.217 380.002 120.222C381.113 120.217 382.214 120.432 383.242 120.855C384.27 121.277 385.203 121.898 385.989 122.682C386.775 123.466 387.398 124.398 387.821 125.423C388.244 126.449 388.459 127.548 388.454 128.657V186.508C388.454 191.023 384.441 194.686 378.892 194.686C374.878 194.686 370.182 193.068 367.364 189.575L329.452 144.418V186.337V186.337Z" fill="white"/>
</g>
<path d="M468.136 134.455V181H458.591L440.068 154.136H439.773V181H428.523V134.455H438.205L456.523 161.273H456.909V134.455H468.136ZM505.756 149.659C505.498 148.705 505.119 147.864 504.619 147.136C504.119 146.394 503.506 145.765 502.778 145.25C502.051 144.735 501.218 144.348 500.278 144.091C499.339 143.818 498.309 143.682 497.188 143.682C494.93 143.682 492.975 144.227 491.324 145.318C489.688 146.409 488.422 148 487.528 150.091C486.634 152.167 486.188 154.689 486.188 157.659C486.188 160.644 486.619 163.189 487.483 165.295C488.347 167.402 489.597 169.008 491.233 170.114C492.869 171.22 494.854 171.773 497.188 171.773C499.248 171.773 500.991 171.439 502.415 170.773C503.854 170.091 504.945 169.129 505.688 167.886C506.43 166.644 506.801 165.182 506.801 163.5L508.892 163.75H497.574V155.545H517.642V161.705C517.642 165.871 516.756 169.439 514.983 172.409C513.225 175.379 510.801 177.659 507.71 179.25C504.634 180.841 501.097 181.636 497.097 181.636C492.657 181.636 488.756 180.674 485.392 178.75C482.028 176.826 479.407 174.083 477.528 170.523C475.65 166.947 474.71 162.705 474.71 157.795C474.71 153.977 475.278 150.591 476.415 147.636C477.551 144.667 479.134 142.152 481.165 140.091C483.21 138.03 485.574 136.47 488.256 135.409C490.953 134.348 493.854 133.818 496.96 133.818C499.657 133.818 502.165 134.205 504.483 134.977C506.816 135.75 508.877 136.841 510.665 138.25C512.468 139.659 513.93 141.333 515.051 143.273C516.172 145.212 516.869 147.341 517.142 149.659H505.756ZM535.523 134.455V181H524.273V134.455H535.523ZM582.199 134.455V181H572.653L554.131 154.136H553.835V181H542.585V134.455H552.267L570.585 161.273H570.972V134.455H582.199ZM600.659 134.455L609.159 149.159H609.523L618.114 134.455H630.705L616.659 157.727L631.159 181H618.25L609.523 166.136H609.159L600.432 181H587.614L602.045 157.727L587.977 134.455H600.659Z" fill="white"/>
</g>
<defs>
<clipPath id="clip0_301_17">
<rect width="851" height="315" fill="white"/>
</clipPath>
<clipPath id="clip1_301_17">
<rect width="149" height="169" fill="white" transform="translate(276 73)"/>
</clipPath>
</defs>
</svg>
